<svg width="45" height="40" viewBox="0 0 45 40" fill="none" xmlns="http://www.w3.org/2000/svg">
<path d="M32.31 24C32.49 22.68 32.625 21.36 32.625 20C32.625 18.64 32.49 17.32 32.31 16H39.915C40.275 17.28 40.5 18.62 40.5 20C40.5 21.38 40.275 22.72 39.915 24M28.3275 35.12C29.6775 32.9 30.7125 30.5 31.4325 28H38.07C35.8901 31.3366 32.4318 33.864 28.3275 35.12ZM27.765 24H17.235C17.01 22.68 16.875 21.36 16.875 20C16.875 18.64 17.01 17.3 17.235 16H27.765C27.9675 17.3 28.125 18.64 28.125 20C28.125 21.36 27.9675 22.68 27.765 24ZM22.5 35.92C20.6325 33.52 19.125 30.86 18.2025 28H26.7975C25.875 30.86 24.3675 33.52 22.5 35.92ZM13.5 12H6.93C9.08743 8.65443 12.5433 6.12297 16.65 4.88C15.3 7.1 14.2875 9.5 13.5 12ZM6.93 28H13.5C14.2875 30.5 15.3 32.9 16.65 35.12C12.5519 33.8633 9.1009 31.3354 6.93 28ZM5.085 24C4.725 22.72 4.5 21.38 4.5 20C4.5 18.62 4.725 17.28 5.085 16H12.69C12.51 17.32 12.375 18.64 12.375 20C12.375 21.36 12.51 22.68 12.69 24M22.5 4.06C24.3675 6.46 25.875 9.14 26.7975 12H18.2025C19.125 9.14 20.6325 6.46 22.5 4.06ZM38.07 12H31.4325C30.7283 9.52292 29.6855 7.13179 28.3275 4.88C32.4675 6.14 35.91 8.68 38.07 12ZM22.5 0C10.0575 0 0 9 0 20C0 25.3043 2.37053 30.3914 6.5901 34.1421C8.67942 35.9993 11.1598 37.4725 13.8896 38.4776C16.6194 39.4827 19.5453 40 22.5 40C28.4674 40 34.1903 37.8929 38.4099 34.1421C42.6295 30.3914 45 25.3043 45 20C45 17.3736 44.418 14.7728 43.2873 12.3463C42.1566 9.91982 40.4992 7.71504 38.4099 5.85786C36.3206 4.00069 33.8402 2.5275 31.1104 1.52241C28.3806 0.517315 25.4547 0 22.5 0Z" fill="white"/>
</svg>
